<svg xmlns="http://www.w3.org/2000/svg" width="960" height="500" viewBox="0 0 960 500">
  <rect width="960" height="500" fill="#fffaf2"/>
  <text x="60" y="50" font-family="Arial, sans-serif" font-size="28" fill="#111827">Dimensioning patterns</text>
  <rect x="80" y="110" width="180" height="110" fill="#e5e7eb" stroke="#111827" stroke-width="2"/>
  <line x1="80" y1="250" x2="260" y2="250" stroke="#111827" stroke-width="2"/>
  <line x1="80" y1="250" x2="80" y2="290" stroke="#111827" stroke-width="2"/>
  <line x1="260" y1="250" x2="260" y2="290" stroke="#111827" stroke-width="2"/>
  <line x1="80" y1="280" x2="260" y2="280" stroke="#2563eb" stroke-width="2"/>
  <text x="146" y="273" font-family="Arial, sans-serif" font-size="20" fill="#1d4ed8">120</text>
  <circle cx="400" cy="165" r="60" fill="#e0f2fe" stroke="#0891b2" stroke-width="2"/>
  <line x1="460" y1="165" x2="560" y2="120" stroke="#0891b2" stroke-width="2"/>
  <text x="568" y="124" font-family="Arial, sans-serif" font-size="22" fill="#0f172a">Ø80</text>
  <path d="M340 340 Q390 270 440 340" fill="none" stroke="#b45309" stroke-width="4"/>
  <line x1="390" y1="340" x2="390" y2="250" stroke="#b45309" stroke-width="2"/>
  <text x="402" y="280" font-family="Arial, sans-serif" font-size="22" fill="#92400e">R35</text>
  <line x1="650" y1="120" x2="840" y2="120" stroke="#111827" stroke-width="2"/>
  <line x1="650" y1="170" x2="770" y2="170" stroke="#111827" stroke-width="2"/>
  <line x1="650" y1="220" x2="720" y2="220" stroke="#111827" stroke-width="2"/>
  <line x1="650" y1="260" x2="650" y2="300" stroke="#111827" stroke-width="2"/>
  <line x1="840" y1="120" x2="840" y2="300" stroke="#111827" stroke-width="2"/>
  <line x1="770" y1="170" x2="770" y2="300" stroke="#111827" stroke-width="2"/>
  <line x1="720" y1="220" x2="720" y2="300" stroke="#111827" stroke-width="2"/>
  <line x1="650" y1="290" x2="840" y2="290" stroke="#16a34a" stroke-width="2"/>
  <text x="670" y="284" font-family="Arial, sans-serif" font-size="20" fill="#166534">0 | 35 | 70 | 120</text>
  <text x="620" y="330" font-family="Arial, sans-serif" font-size="18" fill="#166534">Ordinate dimensions from one origin</text>
  <text x="80" y="330" font-family="Arial, sans-serif" font-size="18" fill="#374151">Linear dimension</text>
  <text x="340" y="420" font-family="Arial, sans-serif" font-size="18" fill="#374151">Diameter, radius, and ordinate examples</text>
</svg>
