<svg xmlns="http://www.w3.org/2000/svg" width="960" height="420" viewBox="0 0 960 420">
  <rect width="960" height="420" fill="#f8fafc"/>
  <text x="70" y="48" font-family="Arial, sans-serif" font-size="28" fill="#111827">Projection methods</text>
  <rect x="60" y="80" width="380" height="280" rx="16" fill="#fff" stroke="#2563eb" stroke-width="3"/>
  <rect x="520" y="80" width="380" height="280" rx="16" fill="#fff" stroke="#dc2626" stroke-width="3"/>
  <text x="180" y="116" font-family="Arial, sans-serif" font-size="24" fill="#1d4ed8">First-angle</text>
  <text x="638" y="116" font-family="Arial, sans-serif" font-size="24" fill="#b91c1c">Third-angle</text>
  <rect x="210" y="180" width="80" height="60" fill="#dbeafe" stroke="#1d4ed8" stroke-width="2"/>
  <rect x="210" y="270" width="80" height="40" fill="#bfdbfe" stroke="#1d4ed8" stroke-width="2"/>
  <rect x="120" y="190" width="70" height="50" fill="#bfdbfe" stroke="#1d4ed8" stroke-width="2"/>
  <text x="223" y="214" font-family="Arial, sans-serif" font-size="20" fill="#111827">Front</text>
  <text x="230" y="297" font-family="Arial, sans-serif" font-size="18" fill="#111827">Top</text>
  <text x="134" y="219" font-family="Arial, sans-serif" font-size="18" fill="#111827">Right</text>
  <rect x="670" y="180" width="80" height="60" fill="#fee2e2" stroke="#b91c1c" stroke-width="2"/>
  <rect x="670" y="120" width="80" height="40" fill="#fecaca" stroke="#b91c1c" stroke-width="2"/>
  <rect x="770" y="190" width="70" height="50" fill="#fecaca" stroke="#b91c1c" stroke-width="2"/>
  <text x="683" y="214" font-family="Arial, sans-serif" font-size="20" fill="#111827">Front</text>
  <text x="690" y="146" font-family="Arial, sans-serif" font-size="18" fill="#111827">Top</text>
  <text x="784" y="219" font-family="Arial, sans-serif" font-size="18" fill="#111827">Right</text>
  <text x="100" y="336" font-family="Arial, sans-serif" font-size="18" fill="#1f2937">Top goes below. Right view goes left.</text>
  <text x="555" y="336" font-family="Arial, sans-serif" font-size="18" fill="#1f2937">Top goes above. Right view goes right.</text>
</svg>
